<svg width="38" height="37" viewBox="0 0 38 37" fill="none" xmlns="http://www.w3.org/2000/svg">
<path d="M6.96598 21.5838L21.531 6.33003L22.6788 5.18217C25.6042 2.25676 30.3861 2.23811 33.2595 5.21513C34.3199 6.31709 34.7606 7.53307 34.9517 9.38268C35.4126 13.8429 26.1431 18.1374 25.4557 19.5035C25.1362 20.127 24.8487 21.1226 24.9559 21.815C25.0631 22.5073 25.1433 22.5022 25.3932 22.7521C27.4548 21.3152 36.8884 16.942 37.9505 10.6946C38.2402 7.89871 37.2425 5.10108 35.3812 3.16748C31.3603 -0.997713 24.6739 -0.982829 20.5801 3.11097L6.62156 17.0695L5.13878 15.5868C2.26216 12.7101 2.19096 8.02677 5.05101 5.13376C6.13709 4.03749 7.53943 3.30897 9.06081 3.05052C10.5822 2.7921 12.1463 3.0167 13.5336 3.69281C14.1962 4.01719 14.9437 4.12651 15.6713 4.00553C16.3991 3.88452 17.071 3.53924 17.5929 3.01792C16.6319 2.05923 15.4916 1.29926 14.2369 0.781443C12.9821 0.263619 11.6378 -0.00191374 10.2803 1.03825e-05C8.92293 0.00193451 7.57918 0.271278 6.32602 0.792658C5.07268 1.31404 3.93441 2.07724 2.97623 3.03864C-1.04675 7.08403 -0.966888 13.651 3.06739 17.6853L6.96598 21.5838Z" fill="url(#paint0_linear_116_19286)"/>
<path d="M9.83801 20.6281L7.77637 22.5648C7.77637 22.5648 20.1651 36.2763 22.5202 36.8088C24.8753 37.3413 23.8322 11.8193 23.8322 11.8193C23.8322 11.8193 23.3324 10.07 22.2703 9.25781C21.2083 8.44565 20.8959 8.82049 20.8959 8.82049V32.1233L9.83801 20.6281Z" fill="#8185ED"/>
<defs>
<linearGradient id="paint0_linear_116_19286" x1="54.585" y1="50.6582" x2="13.6399" y2="20.9879" gradientUnits="userSpaceOnUse">
<stop offset="0.347683" stop-color="#3A8EF6"/>
<stop offset="1" stop-color="#8286ED"/>
</linearGradient>
</defs>
</svg>
